<?xml version="1.0" encoding="utf-8"?><!-- Uploaded to: SVG Repo, www.svgrepo.com, Generator: SVG Repo Mixer Tools -->
<svg width="800px" height="800px" viewBox="0 0 24 24" fill="none" xmlns="http://www.w3.org/2000/svg">
<path d="M15.54 17.7C15.7389 17.7 15.9297 17.621 16.0703 17.4803C16.211 17.3397 16.29 17.1489 16.29 16.95C16.29 16.7511 16.211 16.5603 16.0703 16.4197C15.9297 16.279 15.7389 16.2 15.54 16.2H8.85999L17.48 7.58002C17.5537 7.51136 17.6128 7.42856 17.6538 7.33656C17.6948 7.24456 17.7168 7.14525 17.7186 7.04454C17.7204 6.94384 17.7018 6.84381 17.6641 6.75042C17.6264 6.65703 17.5702 6.5722 17.499 6.50098C17.4278 6.42976 17.343 6.37362 17.2496 6.3359C17.1562 6.29818 17.0562 6.27965 16.9555 6.28143C16.8548 6.2832 16.7554 6.30525 16.6634 6.34624C16.5715 6.38723 16.4886 6.44633 16.42 6.52002L7.79999 15.14V8.46002C7.79999 8.26111 7.72097 8.07034 7.58032 7.92969C7.43967 7.78904 7.2489 7.71002 7.04999 7.71002C6.85108 7.71002 6.66031 7.78904 6.51966 7.92969C6.37901 8.07034 6.29999 8.26111 6.29999 8.46002V17C6.30051 17.0997 6.32091 17.1983 6.35999 17.29C6.41809 17.4253 6.51423 17.5408 6.63672 17.6224C6.75921 17.7041 6.90278 17.7484 7.04999 17.75L15.54 17.7Z" fill="#000000"/>
</svg>