<svg width="26" height="23" viewBox="0 0 26 23" fill="none" xmlns="http://www.w3.org/2000/svg">
<path d="M25.033 17.458L20.946 21.84C20.8574 21.9349 20.7503 22.0107 20.6313 22.0627C20.5123 22.1146 20.3839 22.1416 20.254 22.142H0.879021C0.786815 22.1415 0.696737 22.1142 0.619734 22.0635C0.542731 22.0128 0.482117 21.9408 0.445258 21.8563C0.4084 21.7717 0.396883 21.6783 0.412108 21.5874C0.427333 21.4964 0.468644 21.4119 0.531021 21.344L4.61302 16.962C4.7016 16.867 4.80871 16.7912 4.92773 16.7393C5.04675 16.6873 5.17516 16.6603 5.30502 16.66H24.68C24.7732 16.6581 24.8649 16.6839 24.9436 16.7339C25.0222 16.784 25.0843 16.8563 25.122 16.9415C25.1597 17.0268 25.1714 17.1213 25.1556 17.2132C25.1397 17.3051 25.0971 17.3903 25.033 17.458ZM20.946 8.63098C20.8571 8.53648 20.7499 8.461 20.631 8.40909C20.512 8.35718 20.3838 8.32993 20.254 8.32898H0.879021C0.786621 8.32903 0.696242 8.35603 0.618956 8.40668C0.54167 8.45732 0.480833 8.52941 0.443897 8.6141C0.406962 8.6988 0.395531 8.79243 0.411006 8.88353C0.426481 8.97462 0.468189 9.05923 0.531021 9.12698L4.61302 13.512C4.70197 13.6065 4.80915 13.682 4.92809 13.7339C5.04702 13.7858 5.17525 13.813 5.30502 13.814H24.68C24.7721 13.8131 24.8619 13.7856 24.9386 13.7347C25.0153 13.6838 25.0756 13.6118 25.1122 13.5274C25.1488 13.4429 25.1602 13.3497 25.1449 13.2589C25.1296 13.1681 25.0883 13.0838 25.026 13.016L20.946 8.63098ZM0.879021 5.48298H20.254C20.3839 5.48261 20.5123 5.45562 20.6313 5.40368C20.7503 5.35173 20.8574 5.27594 20.946 5.18098L25.033 0.797978C25.0806 0.747146 25.1164 0.686486 25.1379 0.620291C25.1594 0.554095 25.1661 0.483982 25.1575 0.414912C25.1489 0.345842 25.1252 0.279502 25.0882 0.220588C25.0511 0.161673 25.0016 0.111623 24.943 0.073978C24.8646 0.0238129 24.7731 -0.00194213 24.68 -2.20203e-05H5.30502C5.17516 0.00034636 5.04675 0.0273356 4.92773 0.0792785C4.80871 0.131221 4.7016 0.207015 4.61302 0.301978L0.531021 4.68498C0.468189 4.75273 0.426481 4.83733 0.411006 4.92843C0.395531 5.01952 0.406962 5.11315 0.443897 5.19785C0.480833 5.28255 0.54167 5.35463 0.618956 5.40528C0.696242 5.45592 0.786621 5.48292 0.879021 5.48298Z" fill="url(#paint0_linear_18_234)"/>
<defs>
<linearGradient id="paint0_linear_18_234" x1="2.49402" y1="22.671" x2="22.809" y2="-0.233022" gradientUnits="userSpaceOnUse">
<stop offset="0.08" stop-color="#9945FF"/>
<stop offset="0.3" stop-color="#8752F3"/>
<stop offset="0.5" stop-color="#5497D5"/>
<stop offset="0.6" stop-color="#43B4CA"/>
<stop offset="0.72" stop-color="#28E0B9"/>
<stop offset="0.97" stop-color="#19FB9B"/>
</linearGradient>
</defs>
</svg>
