<svg width="16" height="14" viewBox="0 0 16 14" fill="none" xmlns="http://www.w3.org/2000/svg">
<path d="M11.5006 8.89384H11.5076M13.4444 1H3.48889C2.6177 1 2.1821 1 1.84935 1.16954C1.55665 1.31868 1.31868 1.55665 1.16955 1.84935C1 2.1821 1 2.61769 1 3.48889V10.9556C1 11.8268 1 12.2623 1.16955 12.5951C1.31868 12.8878 1.55665 13.1257 1.84935 13.2749C2.1821 13.4445 2.61769 13.4445 3.48889 13.4445H12.5111C13.3823 13.4445 13.8179 13.4445 14.1507 13.2749C14.4433 13.1257 14.6813 12.8878 14.8304 12.5951C15 12.2623 15 11.8268 15 10.9556V6.60002C15 5.72883 15 5.29321 14.8304 4.96046C14.6813 4.66776 14.4433 4.42979 14.1507 4.28065C13.8179 4.11111 13.3823 4.11111 12.5111 4.11111H4.11111M11.8506 8.89384C11.8506 9.08711 11.6939 9.24384 11.5006 9.24384C11.3073 9.24384 11.1506 9.08711 11.1506 8.89384C11.1506 8.70056 11.3073 8.54384 11.5006 8.54384C11.6939 8.54384 11.8506 8.70056 11.8506 8.89384Z" stroke="white" stroke-linecap="round" stroke-linejoin="round"/>
</svg>
